<svg width="240" height="160" viewBox="0 0 240 160" fill="none" xmlns="http://www.w3.org/2000/svg">
<mask id="path-1-inside-1_1_5226" fill="white">
<path d="M0 0H240V160H0V0Z"/>
</mask>
<path d="M0 0H240V160H0V0Z" fill="white"/>
<path d="M240 160V161H241V160H240ZM240 0H239V160H240H241V0H240ZM240 160V159H0V160V161H240V160Z" fill="#E5E7EB" mask="url(#path-1-inside-1_1_5226)"/>
<path d="M55.609 20.0001C55.6496 20.0001 55.6903 20 55.7321 20C56.8034 20.0012 57.8385 20.1124 58.885 20.3455C58.928 20.355 58.9709 20.3644 59.0151 20.3742C61.4848 20.9323 63.8469 22.0297 66.1228 23.1117C66.1998 23.1483 66.2768 23.1848 66.3539 23.2212C67.1425 23.5944 67.9231 23.9832 68.7031 24.3738C69.8356 24.9403 70.9844 25.4719 72.1364 25.9978C72.1894 26.022 72.1894 26.022 72.2435 26.0467C75.3673 27.4716 78.6074 28.5162 85.7113 29.5881C85.7436 29.5906 85.776 29.593 85.8094 29.5956C86.7415 29.6657 87.6714 29.691 88.6061 29.6901C88.6605 29.6901 88.7149 29.6901 88.771 29.6901C89.679 29.6889 90.5825 29.6713 91.4877 29.5986C91.5372 29.5946 91.5372 29.5946 91.5876 29.5905C95.1141 29.303 98.4948 28.466 101.836 27.3376C101.918 27.3102 101.999 27.2828 102.08 27.2554C102.853 26.9946 103.626 26.7332 104.398 26.4692C107.783 25.312 111.214 24.3078 114.92 24.0718C114.958 24.0695 114.997 24.0671 115.037 24.0647C118.519 23.8623 122.312 24.3331 125.184 26.4584C125.21 26.4771 125.235 26.4958 125.261 26.5151C125.636 26.7943 125.984 27.0979 126.32 27.4214C126.346 27.4464 126.372 27.4715 126.399 27.4974C126.732 27.8184 127.048 28.1431 127.33 28.51C127.348 28.5337 127.367 28.5575 127.386 28.5819C129.189 30.8761 129.958 33.6149 129.643 36.507C129.316 39.0565 128.083 41.4963 126.039 43.1092C125.687 43.3782 125.312 43.6193 124.942 43.863C124.905 43.8877 124.867 43.9124 124.829 43.9378C124.725 43.9993 124.624 44.0442 124.511 44.0852C124.723 44.4635 124.946 44.833 125.176 45.2004C125.346 45.4723 125.514 45.7453 125.681 46.0191C125.89 46.3618 126.101 46.7036 126.312 47.0449C126.566 47.4544 126.817 47.8651 127.068 48.2766C127.259 48.5901 127.451 48.9028 127.645 49.2142C127.855 49.5504 128.062 49.8883 128.268 50.2269C128.531 50.6589 128.796 51.0896 129.062 51.5196C129.267 51.8498 129.47 52.181 129.672 52.5127C129.807 52.7326 129.942 52.9521 130.078 53.171C130.093 53.1957 130.108 53.2203 130.124 53.2458C130.199 53.366 130.274 53.4862 130.348 53.6062C130.375 53.6495 130.402 53.6929 130.43 53.7375C130.454 53.7757 130.478 53.8139 130.502 53.8532C130.572 53.9721 130.634 54.0939 130.695 54.2176C129.766 54.2254 128.837 54.2313 127.909 54.2349C127.477 54.2366 127.046 54.239 126.615 54.2428C126.239 54.2462 125.863 54.2483 125.487 54.2491C125.288 54.2495 125.089 54.2505 124.89 54.253C124.703 54.2552 124.516 54.2559 124.328 54.2554C124.259 54.2555 124.191 54.2562 124.122 54.2575C123.602 54.2667 123.602 54.2667 123.457 54.1444C123.402 54.058 123.366 53.9794 123.333 53.8826C123.313 53.8457 123.292 53.8088 123.271 53.7708C123.254 53.7381 123.237 53.7053 123.22 53.6716C123.2 53.634 123.181 53.5964 123.161 53.5576C123.141 53.5181 123.12 53.4785 123.099 53.4377C122.93 53.111 122.757 52.7865 122.579 52.4643C122.374 52.0931 122.176 51.7182 121.981 51.3419C121.832 51.0563 121.68 50.773 121.524 50.4912C121.344 50.1656 121.17 49.8375 120.998 49.5073C120.806 49.137 120.609 48.77 120.407 48.4048C120.235 48.0922 120.069 47.7765 119.905 47.4599C119.762 47.1862 119.615 46.9148 119.466 46.6445C119.261 46.2732 119.063 45.8984 118.868 45.5221C118.719 45.2365 118.567 44.9532 118.411 44.6714C118.231 44.3458 118.057 44.0177 117.885 43.6875C117.693 43.3174 117.496 42.9506 117.295 42.5856C117.119 42.2666 116.949 41.9447 116.781 41.6216C116.687 41.4414 116.593 41.2614 116.496 41.0828C116.48 41.0534 116.464 41.024 116.448 40.9938C116.418 40.9403 116.389 40.8869 116.36 40.8336C116.266 40.6611 116.266 40.6611 116.266 40.5682C116.293 40.5643 116.321 40.5603 116.349 40.5562C118.099 40.302 118.099 40.302 119.844 40.0135C119.9 40.0038 119.9 40.0038 119.957 39.9939C120.347 39.9264 120.732 39.8491 121.116 39.7503C121.148 39.7421 121.18 39.7338 121.213 39.7253C122.159 39.4728 122.888 38.7979 123.372 37.9693C124.032 36.7968 124.247 35.4604 123.897 34.1512C123.564 32.9874 122.875 31.961 121.903 31.2315C121.88 31.2141 121.857 31.1967 121.833 31.1787C120.301 30.0444 118.31 29.7366 116.447 29.7477C116.401 29.7478 116.355 29.748 116.308 29.7481C115.444 29.7516 114.596 29.8093 113.742 29.9335C113.711 29.9379 113.681 29.9422 113.65 29.9467C111.041 30.3249 108.52 31.1112 106.015 31.9058C102.192 33.1184 98.3453 34.1969 91.706 34.9892C91.6719 34.9917 91.6379 34.9942 91.6029 34.9967C91.3683 35.0135 91.1336 35.0282 90.8988 35.0415C90.8642 35.0436 90.8296 35.0456 90.794 35.0477C90.0021 35.0926 89.2097 35.0918 88.4168 35.0913C88.365 35.0912 88.365 35.0912 88.3122 35.0912C87.2982 35.0908 86.2862 35.0874 85.2748 35.0074C85.1706 34.9991 85.0665 34.9912 84.9623 34.9833C82.6816 34.8076 80.4225 34.4676 78.1942 33.9529C78.1476 33.9422 78.1476 33.9422 78.1001 33.9312C76.0243 33.4498 73.9753 32.8082 72.0102 31.9851C71.9606 31.9645 71.911 31.9438 71.8599 31.9226C70.5067 31.3577 69.1918 30.7118 67.8797 30.0591C67.8534 30.0461 67.8272 30.033 67.8001 30.0195C67.2607 29.7513 66.7222 29.4819 66.1895 29.2007C65.8405 29.0167 65.488 28.8399 65.1347 28.6644C65.1003 28.6472 65.0659 28.6301 65.0304 28.6125C64.4036 28.3011 63.7724 28.0015 63.1339 27.7145C63.0792 27.6896 63.0245 27.6648 62.9698 27.64C62.0436 27.2197 61.1045 26.8443 60.1471 26.5003C60.0984 26.4827 60.0497 26.4652 59.9995 26.4471C59.0105 26.0948 57.9911 25.8446 56.9499 25.7047C56.9194 25.7005 56.8889 25.6962 56.8575 25.6917C54.6639 25.4266 52.3151 25.9681 50.2988 26.819C50.0619 26.9189 50.0619 26.9189 49.9245 26.9189C49.818 26.6799 49.7117 26.4408 49.6056 26.2016C49.5696 26.1203 49.5334 26.0391 49.4972 25.9578C49.445 25.8408 49.3931 25.7236 49.3412 25.6064C49.325 25.5704 49.3089 25.5344 49.2923 25.4972C49.2067 25.3034 49.136 25.1144 49.0832 24.9092C50.5797 24.1975 50.5797 24.1975 51.0183 24.1975C51.0031 24.1501 50.9879 24.1027 50.9723 24.0539C50.9526 23.9918 50.9328 23.9298 50.9131 23.8677C50.8981 23.8209 50.8981 23.8209 50.8827 23.773C50.808 23.537 50.808 23.537 50.808 23.4438C49.8617 23.7652 49.8617 23.7652 48.9404 24.1495C48.8308 24.1975 48.8308 24.1975 48.7466 24.1975C48.6366 23.9111 48.5269 23.6247 48.4175 23.3381C48.3668 23.2051 48.3159 23.0721 48.2647 22.9391C48.206 22.7863 48.1476 22.6332 48.0893 22.4802C48.0709 22.4325 48.0525 22.3848 48.0336 22.3357C48.0167 22.2913 47.9999 22.2469 47.9825 22.2011C47.9601 22.1425 47.9601 22.1425 47.9372 22.0828C47.9053 21.9784 47.9053 21.9784 47.9053 21.8109C50.1186 20.4131 53.0364 20.0017 55.609 20.0001ZM54.7542 22.6662C54.724 22.6701 54.6938 22.674 54.6627 22.6781C54.6314 22.6824 54.6 22.6867 54.5676 22.6912C54.5176 22.6978 54.5176 22.6978 54.4665 22.7046C54.3964 22.714 54.3264 22.7235 54.2564 22.7331C54.1499 22.7477 54.0434 22.7618 53.9369 22.7759C53.8684 22.7851 53.8 22.7944 53.7315 22.8037C53.6843 22.8099 53.6843 22.8099 53.6362 22.8162C53.4442 22.843 53.2648 22.8843 53.0796 22.9414C53.0926 23.0513 53.1058 23.1612 53.1191 23.2711C53.1246 23.318 53.1246 23.318 53.1302 23.3658C53.1483 23.5357 53.1483 23.5357 53.2058 23.695C53.6512 23.6443 54.0962 23.5907 54.5411 23.5362C54.6028 23.5287 54.6645 23.5212 54.7262 23.5138C54.814 23.5032 54.9018 23.4924 54.9896 23.4816C55.041 23.4753 55.0924 23.4691 55.1454 23.4626C55.2643 23.4506 55.2643 23.4506 55.3513 23.4019C55.3235 23.1532 55.2958 22.9045 55.2672 22.6483C55.0072 22.6456 55.0072 22.6456 54.7542 22.6662ZM57.623 22.6483C57.5813 22.9108 57.5397 23.1733 57.4968 23.4438C57.572 23.4565 57.6473 23.4692 57.7249 23.4822C58.2776 23.577 58.823 23.6806 59.3652 23.8241C59.5037 23.866 59.5037 23.866 59.6002 23.8625C59.6354 23.7526 59.6704 23.6427 59.7053 23.5328C59.7154 23.5015 59.7254 23.4703 59.7357 23.4381C59.7906 23.2767 59.7906 23.2767 59.8105 23.1089C59.4263 22.9835 59.042 22.8875 58.6458 22.8079C58.5675 22.7916 58.5675 22.7916 58.4876 22.775C58.1993 22.7162 57.9164 22.6714 57.623 22.6483ZM61.9981 23.7788C61.9148 24.0275 61.8315 24.2762 61.7456 24.5324C62.0187 24.641 62.292 24.7491 62.5655 24.8567C62.6585 24.8934 62.7515 24.9302 62.8445 24.9672C62.9779 25.0203 63.1115 25.0728 63.2451 25.1253C63.2868 25.142 63.3285 25.1587 63.3714 25.1759C63.4102 25.191 63.4489 25.2061 63.4888 25.2216C63.54 25.2418 63.54 25.2418 63.5921 25.2625C63.6877 25.2966 63.6877 25.2966 63.807 25.2442C63.8576 25.1473 63.9004 25.0546 63.9411 24.9537C63.9525 24.9266 63.964 24.8996 63.9758 24.8717C64.0386 24.7278 64.0386 24.7278 64.0594 24.5743C63.538 24.3535 63.0152 24.1386 62.4845 23.941C62.4406 23.9247 62.3968 23.9084 62.3517 23.8915C62.1794 23.8153 62.1794 23.8153 61.9981 23.7788ZM66.1628 25.5373C66.0517 25.7722 65.9407 26.007 65.8262 26.249C66.052 26.3666 66.052 26.3666 66.2777 26.4841C66.4858 26.5929 66.6923 26.7041 66.8975 26.8182C66.9428 26.8432 66.988 26.8682 67.0346 26.8939C67.1239 26.9433 67.213 26.9931 67.3018 27.0434C67.3428 27.0659 67.3838 27.0885 67.426 27.1118C67.4623 27.1321 67.4986 27.1525 67.5361 27.1735C67.6318 27.219 67.6318 27.219 67.7273 27.2049C67.8561 27.1461 67.9007 27.0214 67.9612 26.9006C67.9811 26.863 67.9811 26.863 68.0015 26.8247C68.0747 26.6904 68.0747 26.6904 68.0979 26.5421C67.6121 26.2759 67.1249 26.0128 66.6334 25.7571C66.5913 25.7351 66.5491 25.7131 66.5057 25.6905C66.4669 25.6704 66.4281 25.6502 66.3881 25.6295C66.3537 25.6117 66.3192 25.5938 66.2838 25.5754C66.2132 25.5342 66.2132 25.5342 66.1628 25.5373ZM114.614 26.5773C114.578 26.5809 114.541 26.5845 114.504 26.5882C114.427 26.5959 114.351 26.6036 114.274 26.6114C114.157 26.6232 114.04 26.6348 113.923 26.6464C113.849 26.6539 113.774 26.6614 113.699 26.6689C113.664 26.6723 113.63 26.6758 113.594 26.6793C113.431 26.696 113.271 26.7153 113.111 26.7515C113.117 26.837 113.123 26.9224 113.129 27.0079C113.132 27.0555 113.136 27.1031 113.139 27.1522C113.152 27.2855 113.172 27.4151 113.195 27.547C113.433 27.5239 113.671 27.5008 113.909 27.4777C113.989 27.4699 114.07 27.462 114.151 27.4542C114.268 27.4429 114.384 27.4316 114.501 27.4202C114.537 27.4168 114.572 27.4133 114.609 27.4098C114.853 27.3861 115.097 27.362 115.34 27.3376C115.341 27.2443 115.342 27.151 115.343 27.0576C115.343 27.0057 115.344 26.9537 115.344 26.9001C115.341 26.774 115.328 26.6643 115.298 26.5421C115.068 26.538 114.844 26.5539 114.614 26.5773ZM117.654 26.584C117.585 26.7221 117.596 26.8767 117.588 27.0288C117.586 27.0624 117.585 27.096 117.583 27.1306C117.578 27.2135 117.574 27.2965 117.57 27.3795C117.638 27.3903 117.638 27.3903 117.707 27.4012C117.876 27.4281 118.045 27.4552 118.214 27.4822C118.287 27.4939 118.36 27.5055 118.433 27.5171C118.538 27.5338 118.644 27.5507 118.749 27.5676C118.781 27.5726 118.813 27.5777 118.846 27.5829C119.039 27.6141 119.229 27.6524 119.419 27.6984C119.518 27.7196 119.518 27.7196 119.673 27.7145C119.702 27.6124 119.73 27.5104 119.757 27.4083C119.769 27.3649 119.769 27.3649 119.782 27.3207C119.815 27.197 119.842 27.0895 119.842 26.9608C118.76 26.6856 118.76 26.6856 117.654 26.584ZM110.244 27.29C110.212 27.2981 110.179 27.3062 110.146 27.3145C110.078 27.3316 110.009 27.3488 109.941 27.3661C109.838 27.3924 109.735 27.4182 109.631 27.4439C109.315 27.5232 109.001 27.6045 108.694 27.7145C108.699 27.7434 108.704 27.7723 108.709 27.802C108.722 27.871 108.734 27.9399 108.747 28.0088C108.786 28.1681 108.844 28.3153 108.904 28.4681C109.594 28.311 110.279 28.1374 110.965 27.9657C110.959 27.8999 110.953 27.8342 110.947 27.7684C110.944 27.7318 110.94 27.6952 110.937 27.6575C110.918 27.5041 110.881 27.3608 110.839 27.212C110.63 27.2023 110.445 27.2386 110.244 27.29ZM70.1172 27.6307C70.0597 27.7325 70.0028 27.8346 69.9463 27.9369C69.9299 27.9658 69.9135 27.9947 69.8966 28.0245C69.8547 28.1009 69.8173 28.1797 69.7806 28.2588C69.8087 28.3841 69.8087 28.3841 69.887 28.4291C69.9147 28.4427 69.9424 28.4563 69.9709 28.4703C70.0022 28.486 70.0335 28.5016 70.0658 28.5177C70.0999 28.5342 70.134 28.5507 70.1691 28.5677C70.204 28.585 70.239 28.6023 70.2749 28.6201C70.3869 28.6753 70.4992 28.73 70.6115 28.7847C70.6865 28.8217 70.7616 28.8588 70.8366 28.8959C71.2785 29.1481 71.2785 29.1481 71.7578 29.2636C71.9036 28.932 71.9036 28.932 72.0523 28.5937C71.6127 28.3581 71.1708 28.1351 70.7186 27.9246C70.5162 27.8304 70.3161 27.732 70.1172 27.6307ZM122.071 27.7563C121.96 27.9774 121.849 28.1985 121.735 28.4262C121.857 28.5173 121.954 28.5824 122.087 28.6487C122.123 28.6667 122.159 28.6847 122.196 28.7033C122.233 28.7224 122.271 28.7415 122.31 28.7612C122.649 28.933 122.968 29.1196 123.277 29.3399C123.422 29.4472 123.422 29.4472 123.594 29.4577C123.694 29.3669 123.77 29.2691 123.849 29.1589C123.878 29.1179 123.908 29.0769 123.939 29.0346C124.014 28.9378 124.014 28.9378 124.006 28.8449C123.917 28.777 123.827 28.715 123.733 28.6539C123.69 28.6261 123.69 28.6261 123.647 28.5977C122.898 28.058 122.898 28.058 122.071 27.7563ZM106.278 28.4432C106.239 28.4561 106.199 28.4689 106.159 28.4822C105.979 28.5416 105.798 28.6013 105.618 28.6614C105.523 28.693 105.428 28.7243 105.332 28.7554C105.195 28.8001 105.059 28.8456 104.922 28.8914C104.879 28.9052 104.836 28.9189 104.792 28.9332C104.733 28.9532 104.733 28.9532 104.672 28.9738C104.62 28.991 104.62 28.991 104.567 29.0087C104.48 29.0475 104.48 29.0475 104.451 29.1334C104.44 29.2803 104.498 29.4102 104.547 29.5462C104.557 29.5754 104.568 29.6046 104.578 29.6347C104.603 29.7065 104.629 29.7782 104.655 29.8498C104.698 29.8354 104.741 29.8211 104.786 29.8063C105.587 29.5407 105.587 29.5407 105.688 29.507C105.755 29.4848 105.822 29.4625 105.889 29.4402C106.035 29.3911 106.182 29.3437 106.33 29.2995C106.376 29.2857 106.421 29.2719 106.469 29.2577C106.508 29.2465 106.547 29.2352 106.587 29.2237C106.68 29.188 106.68 29.188 106.711 29.1009C106.72 28.954 106.663 28.824 106.614 28.6879C106.598 28.6441 106.598 28.6441 106.583 28.5994C106.558 28.5276 106.532 28.456 106.506 28.3844C106.427 28.3844 106.352 28.419 106.278 28.4432ZM74.1136 29.473C74.0713 29.5749 74.0293 29.677 73.9874 29.7791C73.9754 29.808 73.9634 29.8369 73.951 29.8667C73.8995 29.9928 73.8612 30.0892 73.8612 30.2266C74.5401 30.5058 75.2227 30.7583 75.9226 30.9802C75.959 30.8792 75.9949 30.7781 76.0304 30.6767C76.0459 30.6339 76.0459 30.6339 76.0618 30.5902C76.0993 30.482 76.1328 30.3815 76.1331 30.2663C76.0635 30.1319 75.9297 30.1099 75.7931 30.0658C75.7627 30.0554 75.7323 30.045 75.701 30.0343C75.6033 30.0009 75.5053 29.9685 75.4072 29.9361C75.3114 29.9038 75.2156 29.8713 75.1198 29.8388C75.057 29.8175 74.9943 29.7963 74.9315 29.7752C74.6558 29.6821 74.3843 29.5798 74.1136 29.473ZM102 29.8479C101.965 29.8577 101.93 29.8675 101.895 29.8776C101.857 29.8886 101.82 29.8995 101.782 29.9108C101.724 29.9273 101.724 29.9273 101.665 29.9442C101.583 29.9675 101.502 29.9911 101.42 30.0148C101.296 30.051 101.171 30.0867 101.047 30.1223C100.967 30.1451 100.888 30.1679 100.809 30.1908C100.772 30.2015 100.734 30.2122 100.696 30.2232C100.526 30.2729 100.359 30.3238 100.196 30.3941C100.208 30.4648 100.22 30.5354 100.233 30.606C100.239 30.6454 100.246 30.6847 100.253 30.7253C100.283 30.8686 100.323 31.0072 100.364 31.1477C100.862 31.0368 101.351 30.9062 101.839 30.7604C101.905 30.741 101.97 30.7216 102.036 30.7022C102.194 30.6555 102.352 30.6086 102.51 30.5615C102.478 30.4436 102.445 30.3259 102.412 30.2083C102.399 30.1579 102.399 30.1579 102.385 30.1065C102.376 30.0745 102.367 30.0425 102.358 30.0096C102.345 29.9652 102.345 29.9652 102.333 29.9199C102.322 29.8967 102.311 29.8736 102.299 29.8498C102.162 29.8044 102.132 29.8098 102 29.8479ZM125.434 30.7421C125.411 30.759 125.387 30.7759 125.363 30.7934C125.246 30.8804 125.189 30.9232 125.142 31.064C125.201 31.1618 125.262 31.2518 125.329 31.344C125.64 31.7899 125.88 32.2705 126.068 32.7806C126.34 32.732 126.576 32.6498 126.825 32.5294C126.632 31.8712 126.289 31.2892 125.899 30.729C125.876 30.6948 125.852 30.6605 125.828 30.6252C125.801 30.5937 125.801 30.5937 125.773 30.5615C125.634 30.5615 125.541 30.6618 125.434 30.7421ZM78.3204 30.8546C78.2921 30.9488 78.2641 31.043 78.2363 31.1372C78.2207 31.1897 78.2051 31.2422 78.189 31.2962C78.1453 31.443 78.1453 31.443 78.1522 31.6083C78.5777 31.7268 79.0042 31.8266 79.4373 31.9136C79.5344 31.9331 79.6314 31.953 79.7285 31.9728C79.7905 31.9854 79.8525 31.998 79.9146 32.0106C79.9435 32.0165 79.9723 32.0224 80.0021 32.0284C80.1487 32.0586 80.1487 32.0586 80.2976 32.0688C80.3189 31.9756 80.3399 31.8822 80.3607 31.7888C80.3724 31.7369 80.3842 31.6849 80.3962 31.6313C80.4195 31.5059 80.4261 31.3997 80.4238 31.2733C80.1446 31.2135 79.8653 31.1539 79.586 31.0944C79.491 31.0742 79.3959 31.0539 79.3009 31.0335C79.1645 31.0043 79.028 30.9752 78.8915 30.9462C78.8489 30.9371 78.8063 30.9279 78.7624 30.9185C78.7228 30.9101 78.6832 30.9017 78.6425 30.8931C78.5902 30.8819 78.5902 30.8819 78.5369 30.8705C78.4412 30.851 78.4412 30.851 78.3204 30.8546ZM97.5504 31.0138C97.5131 31.022 97.4757 31.0302 97.4372 31.0387C97.3172 31.0652 97.1974 31.092 97.0775 31.1189C96.9977 31.1366 96.9178 31.1542 96.8379 31.1718C96.5119 31.244 96.1865 31.3171 95.8628 31.3989C95.8759 31.4853 95.889 31.5716 95.9022 31.658C95.9096 31.7061 95.9169 31.7542 95.9244 31.8037C95.9433 31.9208 95.9646 32.0366 95.989 32.1526C96.2746 32.13 96.5488 32.0872 96.8281 32.0242C96.8657 32.0159 96.9034 32.0076 96.9423 31.999C97.061 31.9728 97.1797 31.9462 97.2984 31.9197C97.3795 31.9017 97.4607 31.8837 97.5419 31.8658C97.7395 31.8221 97.937 31.7781 98.1345 31.7339C98.1279 31.6735 98.1213 31.6132 98.1147 31.5528C98.1091 31.5024 98.1091 31.5024 98.1035 31.451C98.0914 31.3486 98.0748 31.2485 98.053 31.1477C98.0465 31.1166 98.0401 31.0855 98.0334 31.0535C97.9633 30.8494 97.7094 30.9778 97.5504 31.0138ZM82.6534 31.692C82.6392 31.7705 82.6252 31.849 82.6114 31.9275C82.6036 31.9712 82.5958 32.015 82.5877 32.06C82.5698 32.1905 82.5661 32.3142 82.5693 32.4457C82.9873 32.5263 83.4061 32.5903 83.8287 32.6419C83.8944 32.6502 83.8944 32.6502 83.9614 32.6586C84.2279 32.6901 84.4885 32.7039 84.7568 32.6969C84.7893 32.4429 84.803 32.1992 84.7989 31.9432C84.7094 31.8987 84.6466 31.8892 84.5477 31.8774C84.4961 31.8711 84.4961 31.8711 84.4434 31.8647C84.4061 31.8603 84.3688 31.856 84.3304 31.8515C84.292 31.8469 84.2536 31.8423 84.2141 31.8376C84.1326 31.8279 84.0512 31.8183 83.9697 31.8088C83.8457 31.7942 83.7217 31.7793 83.5978 31.7644C83.5186 31.755 83.4394 31.7457 83.3602 31.7363C83.3049 31.7297 83.3049 31.7297 83.2485 31.7229C83.0485 31.6997 82.8548 31.6874 82.6534 31.692ZM92.9108 31.8109C92.8753 31.8145 92.8397 31.8182 92.8031 31.8219C92.7286 31.8295 92.6541 31.8372 92.5795 31.845C92.4656 31.8569 92.3516 31.8685 92.2376 31.88C92.1649 31.8875 92.0922 31.895 92.0195 31.9025C91.9855 31.9059 91.9516 31.9094 91.9166 31.9129C91.7692 31.9285 91.6318 31.9492 91.4877 31.9851C91.5016 32.2476 91.5155 32.5101 91.5298 32.7806C91.767 32.7585 92.0041 32.7362 92.2413 32.7137C92.3218 32.706 92.4023 32.6985 92.4828 32.691C93.1036 32.6352 93.1036 32.6352 93.7173 32.5294C93.7114 32.4273 93.7052 32.3253 93.6989 32.2232C93.6973 32.1943 93.6956 32.1654 93.6939 32.1356C93.6858 32.0072 93.6743 31.8984 93.6332 31.7758C93.3895 31.772 93.1531 31.7855 92.9108 31.8109ZM87.0706 32.0688C87.0567 32.3314 87.0428 32.5939 87.0285 32.8643C87.4952 32.9137 87.9585 32.911 88.4273 32.9088C88.5081 32.9086 88.5889 32.9084 88.6697 32.9083C88.8658 32.9078 89.062 32.9071 89.2581 32.9062C89.2593 32.8207 89.2601 32.7353 89.2607 32.6498C89.2612 32.6022 89.2617 32.5546 89.2622 32.5055C89.2609 32.3431 89.2609 32.3431 89.216 32.1107C88.508 32.0969 87.8 32.0831 87.0706 32.0688ZM126.488 34.8741C126.481 34.9635 126.473 35.0529 126.465 35.1451C126.457 35.234 126.449 35.323 126.441 35.412C126.436 35.4727 126.431 35.5334 126.426 35.5941C126.393 35.9749 126.343 36.3436 126.261 36.7172C126.232 36.8412 126.232 36.8412 126.236 36.9675C126.611 37.0504 126.611 37.0504 126.993 37.135C127.238 36.4041 127.272 35.6381 127.246 34.8741C126.996 34.8741 126.746 34.8741 126.488 34.8741ZM125.395 38.9772C125.317 39.0741 125.317 39.0741 125.242 39.1997C124.928 39.6836 124.546 40.0847 124.132 40.4845C124.281 40.685 124.433 40.8808 124.595 41.0707C125.204 40.7937 125.791 39.9689 126.11 39.3959C126.11 39.3683 126.11 39.3406 126.11 39.3122C126.014 39.256 125.919 39.2003 125.823 39.1447C125.796 39.1287 125.769 39.1127 125.741 39.0963C125.579 39.001 125.579 39.001 125.395 38.9772ZM122.034 41.8219C121.991 41.8393 121.949 41.8567 121.905 41.8746C121.836 41.9028 121.836 41.9028 121.766 41.9316C121.305 42.1185 120.84 42.2776 120.363 42.4213C120.202 42.4707 120.043 42.5241 119.884 42.578C119.9 42.6083 119.917 42.6386 119.934 42.6699C120.047 42.8749 120.159 43.0795 120.262 43.2897C120.55 43.2702 120.813 43.2229 121.088 43.138C121.124 43.1269 121.16 43.1159 121.198 43.1045C121.712 42.9431 122.193 42.7211 122.66 42.4524C122.59 42.1943 122.455 41.9716 122.324 41.7406C122.212 41.7406 122.137 41.779 122.034 41.8219ZM121.54 44.6662C121.511 44.6735 121.482 44.6808 121.452 44.6883C121.377 44.7079 121.303 44.7313 121.23 44.7551C121.216 44.7828 121.202 44.8104 121.188 44.8389C121.228 44.93 121.228 44.93 121.292 45.0316C121.315 45.0715 121.339 45.1115 121.364 45.1527C121.39 45.1959 121.416 45.2392 121.443 45.2837C121.497 45.3746 121.551 45.4654 121.605 45.5562C121.633 45.6033 121.661 45.6504 121.69 45.6989C121.831 45.9346 121.969 46.1719 122.108 46.409C122.158 46.494 122.208 46.5791 122.258 46.6641C122.294 46.7256 122.33 46.7871 122.366 46.8486C122.524 46.7869 122.671 46.7163 122.82 46.634C122.862 46.6115 122.903 46.5889 122.945 46.5657C122.976 46.5485 123.007 46.5313 123.039 46.5136C123.014 46.3489 122.964 46.2319 122.879 46.0891C122.854 46.048 122.83 46.0069 122.805 45.9646C122.779 45.9213 122.753 45.8779 122.726 45.8333C122.672 45.7432 122.618 45.6532 122.565 45.5631C122.525 45.4964 122.525 45.4964 122.484 45.4284C122.415 45.3113 122.347 45.1935 122.28 45.0751C122.261 45.0419 122.242 45.0088 122.222 44.9747C122.187 44.9132 122.152 44.8516 122.118 44.7898C122.067 44.6998 122.067 44.6998 121.987 44.5877C121.83 44.5877 121.69 44.6265 121.54 44.6662ZM124.175 48.4396C124.064 48.4986 123.96 48.5595 123.854 48.6254C123.824 48.6436 123.794 48.6617 123.764 48.6805C123.69 48.7255 123.617 48.7709 123.544 48.8164C123.722 49.1464 123.906 49.4733 124.093 49.7988C124.138 49.8768 124.183 49.9549 124.227 50.033C124.256 50.0835 124.285 50.134 124.314 50.1845C124.34 50.2294 124.366 50.2743 124.392 50.3205C124.47 50.4506 124.552 50.5754 124.637 50.7006C124.71 50.6614 124.783 50.6221 124.856 50.5828C124.916 50.55 124.916 50.55 124.978 50.5166C125.091 50.4546 125.201 50.3902 125.31 50.3237C125.251 50.1647 125.177 50.0218 125.092 49.8749C125.065 49.8292 125.039 49.7835 125.012 49.7364C124.983 49.6879 124.955 49.6395 124.927 49.591C124.898 49.5417 124.869 49.4924 124.84 49.4431C124.573 48.8787 124.573 48.8787 124.175 48.4396ZM126.104 52.4591C126.077 52.475 126.049 52.491 126.02 52.5075C125.952 52.547 125.884 52.5867 125.815 52.6265C125.843 52.7691 125.899 52.8774 125.972 53.0027C125.994 53.0418 126.017 53.081 126.04 53.1213C126.064 53.1618 126.088 53.2023 126.112 53.2441C126.136 53.2853 126.16 53.3265 126.185 53.3689C126.244 53.4704 126.303 53.5719 126.362 53.6733C126.534 53.6733 126.647 53.5908 126.791 53.5058C126.818 53.4898 126.846 53.4738 126.874 53.4574C126.942 53.4179 127.01 53.3781 127.077 53.3383C126.945 53.0624 126.805 52.7936 126.646 52.5323C126.618 52.4863 126.59 52.4404 126.561 52.393C126.537 52.3595 126.513 52.3261 126.488 52.2916C126.343 52.2916 126.227 52.3877 126.104 52.4591Z" fill="#000A3A"/>
<path d="M110.958 37.9774C111.06 38.0712 111.16 38.1681 111.26 38.2651C111.298 38.2997 111.336 38.3343 111.375 38.37C112.968 39.8672 113.6 42.3041 113.67 44.4157C113.675 44.6551 113.675 44.8944 113.674 45.1338C113.673 45.2782 113.674 45.4225 113.675 45.5668C113.677 48.0583 113.022 50.6122 111.24 52.4386C109.973 53.6924 108.258 54.2287 106.5 54.2248C105.137 54.2122 103.854 53.8132 102.846 52.8774C102.809 52.8433 102.772 52.8093 102.734 52.7742C102.3 52.3598 101.972 51.8832 101.668 51.3701C101.627 51.301 101.585 51.232 101.542 51.1608C101.528 54.4077 101.514 57.6547 101.5 61C99.5704 61 97.6407 61 95.6526 61C95.6526 53.0277 95.6526 45.0554 95.6526 36.8416C97.3879 36.8416 99.1232 36.8416 100.911 36.8416C100.94 37.0153 100.961 37.1707 100.969 37.3446C100.972 37.4178 100.972 37.4178 100.976 37.4924C100.978 37.5447 100.981 37.5969 100.983 37.6507C100.987 37.7337 100.991 37.8167 100.996 37.8997C101.001 38.0157 101.007 38.1317 101.012 38.2477C101.022 38.4498 101.031 38.652 101.041 38.8541C101.046 38.9614 101.051 39.0688 101.056 39.1762C101.071 39.4735 101.091 39.7693 101.121 40.0655C101.144 40.0209 101.166 39.9763 101.189 39.9304C101.952 38.4405 103.167 37.2825 104.781 36.7578C106.822 36.1383 109.347 36.5538 110.958 37.9774ZM102.545 41.7069C101.512 42.9046 101.414 44.6542 101.509 46.1561C101.592 47.1162 101.803 48.1333 102.426 48.8998C102.464 48.9487 102.464 48.9487 102.504 48.9986C102.932 49.5081 103.567 49.85 104.234 49.9174C104.364 49.923 104.493 49.9243 104.624 49.923C104.693 49.9225 104.693 49.9225 104.763 49.922C105.525 49.9062 106.18 49.6491 106.725 49.1097C107.402 48.4032 107.671 47.4208 107.768 46.4714C107.773 46.4287 107.777 46.386 107.782 46.3419C107.915 44.8713 107.878 43.0436 106.927 41.824C106.451 41.2652 105.89 40.9487 105.16 40.8191C104.129 40.7447 103.286 40.9526 102.545 41.7069Z" fill="#1B5DEF"/>
<path d="M152.192 36.7583C154.108 36.7583 156.024 36.7583 157.997 36.7583C157.999 37.4825 158.001 38.2068 158.004 38.953C158.005 39.4127 158.007 39.8723 158.008 40.332C158.009 40.5736 158.01 40.8152 158.011 41.0569C158.011 41.0872 158.011 41.1174 158.011 41.1486C158.013 41.6357 158.014 42.1228 158.015 42.6099C158.017 43.1108 158.018 43.6117 158.02 44.1126C158.021 44.3935 158.022 44.6744 158.023 44.9553C158.023 45.2204 158.024 45.4854 158.025 45.7505C158.026 45.8471 158.026 45.9438 158.026 46.0404C157.985 47.6401 157.985 47.6401 158.67 49.0259C159.347 49.5759 160.097 49.6714 160.942 49.6121C161.557 49.532 162.068 49.2501 162.499 48.8166C162.522 48.7949 162.545 48.7732 162.569 48.7508C163.366 47.9367 163.401 46.5852 163.4 45.528C163.401 45.4317 163.401 45.3355 163.402 45.2393C163.403 44.9806 163.403 44.7219 163.403 44.4632C163.404 44.1919 163.405 43.9206 163.406 43.6493C163.407 43.1948 163.409 42.7403 163.41 42.2858C163.41 41.818 163.412 41.3503 163.413 40.8826C163.413 40.8388 163.413 40.8388 163.413 40.794C163.414 40.5397 163.415 40.2855 163.416 40.0312C163.419 38.9402 163.422 37.8493 163.424 36.7583C165.354 36.7583 167.283 36.7583 169.272 36.7583C169.272 42.3817 169.272 48.0052 169.272 53.799C167.55 53.799 165.829 53.799 164.055 53.799C164.024 53.6433 164.005 53.51 163.997 53.3535C163.995 53.307 163.993 53.2606 163.99 53.2128C163.988 53.163 163.985 53.1132 163.983 53.0619C163.98 53.0102 163.978 52.9585 163.975 52.9053C163.968 52.768 163.961 52.6307 163.954 52.4934C163.945 52.3009 163.935 52.1084 163.925 51.9159C163.92 51.8136 163.915 51.7113 163.91 51.609C163.896 51.3331 163.876 51.059 163.845 50.7844C163.825 50.823 163.806 50.8615 163.786 50.9012C163.476 51.5054 163.097 52.0131 162.625 52.5011C162.588 52.5415 162.588 52.5415 162.551 52.5827C161.543 53.6638 159.882 54.0743 158.46 54.1339C156.756 54.1908 155.013 53.8753 153.726 52.6878C152.661 51.6311 152.189 50.1256 152.187 48.6508C152.187 48.6043 152.187 48.5578 152.187 48.5099C152.187 48.4594 152.187 48.4089 152.187 48.357C152.187 48.218 152.187 48.0791 152.187 47.9402C152.187 47.79 152.187 47.6397 152.187 47.4895C152.187 47.2296 152.187 46.9697 152.188 46.7097C152.188 46.334 152.188 45.9582 152.188 45.5824C152.188 44.9726 152.188 44.3628 152.189 43.753C152.189 43.1609 152.189 42.5687 152.19 41.9766C152.19 41.9397 152.19 41.9028 152.19 41.8648C152.19 41.5761 152.19 41.2875 152.19 40.9988C152.19 39.5853 152.191 38.1718 152.192 36.7583Z" fill="#1B5DEF"/>
<path d="M202.394 38.3444C202.518 38.4549 202.638 38.5689 202.758 38.6839C202.791 38.7148 202.824 38.7456 202.858 38.7773C204.249 40.1039 204.941 42.1594 204.992 44.0407C205.01 44.9469 205.011 45.8686 204.861 46.7647C201.016 46.7647 197.17 46.7647 193.208 46.7647C193.462 47.7753 193.762 48.8626 194.713 49.4486C195.363 49.8177 196.015 49.9565 196.76 49.9572C196.789 49.9572 196.817 49.9572 196.846 49.9573C197.739 49.9559 198.577 49.7729 199.25 49.1486C199.549 48.8363 199.777 48.4613 199.939 48.0626C200.258 48.1457 200.571 48.2404 200.883 48.3447C200.928 48.3597 200.974 48.3747 201.02 48.3901C201.166 48.4387 201.312 48.4875 201.459 48.5362C201.56 48.57 201.661 48.6037 201.763 48.6374C202.565 48.9044 203.365 49.1748 204.165 49.4484C204.326 49.5037 204.488 49.5582 204.651 49.6118C204.351 50.903 203.326 51.9914 202.237 52.6906C199.736 54.2292 196.595 54.4636 193.772 53.8023C191.671 53.2805 189.87 52.0392 188.743 50.194C187.417 47.9587 187.247 44.9251 187.888 42.445C188.255 41.1047 188.888 39.952 189.843 38.9352C189.876 38.899 189.91 38.8628 189.944 38.8256C192.577 36.09 197.507 35.7115 202.394 38.3444ZM194.117 41.4758C193.623 42.0943 193.362 42.8065 193.25 43.5826C195.291 43.5826 197.332 43.5826 199.434 43.5826C199.343 43.022 199.343 43.022 199.192 42.4836C199.181 42.4525 199.171 42.4214 199.16 42.3894C198.987 41.909 198.749 41.5149 198.382 41.1542C198.359 41.1302 198.336 41.1062 198.312 41.0814C197.839 40.6308 197.129 40.5019 196.5 40.5079C196.452 40.5082 196.404 40.5086 196.355 40.5089C195.494 40.526 194.702 40.8254 194.117 41.4758Z" fill="#1B5DEF"/>
<path d="M88.2905 37.3024C88.3314 37.322 88.3314 37.322 88.3731 37.342C89.024 37.6572 89.6038 38.0758 90.1196 38.58C90.1834 38.642 90.2482 38.7028 90.3133 38.7634C91.3771 39.7691 91.9874 41.1558 92.2975 42.5622C92.3039 42.5906 92.3102 42.619 92.3168 42.6483C92.4468 43.2792 92.469 43.9136 92.4662 44.5554C92.4658 44.6811 92.4662 44.8069 92.4668 44.9326C92.4677 46.2131 92.4677 46.2131 92.3291 46.7648C88.4975 46.7648 84.666 46.7648 80.7183 46.7648C80.9397 47.8117 81.2514 48.8073 82.1757 49.4365C83.0847 49.9996 84.3054 50.1092 85.3405 49.8841C85.8968 49.746 86.3796 49.4806 86.7761 49.0676C86.8017 49.043 86.8273 49.0183 86.8537 48.9929C87.1127 48.7263 87.2748 48.387 87.4492 48.0628C87.7514 48.1416 88.0479 48.2301 88.3433 48.3313C88.4039 48.3519 88.4039 48.3519 88.4656 48.3729C88.5975 48.4177 88.7293 48.4627 88.8611 48.5076C88.9533 48.539 89.0455 48.5703 89.1377 48.6017C89.3307 48.6673 89.5237 48.7329 89.7167 48.7986C90.1634 48.9506 90.6104 49.1017 91.0574 49.2528C91.2825 49.3289 91.5075 49.4051 91.7326 49.4813C91.8081 49.5068 91.8835 49.5324 91.959 49.5579C92.0123 49.5759 92.0655 49.5939 92.1187 49.6119C92.1064 49.6713 92.0938 49.7306 92.0811 49.7899C92.0742 49.8229 92.0672 49.856 92.06 49.89C92.0205 50.0437 91.9531 50.1785 91.8795 50.3185C91.8645 50.3474 91.8496 50.3763 91.8342 50.4061C90.9734 52.0475 89.3976 53.0816 87.6633 53.644C86.6982 53.9434 85.6834 54.108 84.6727 54.1338C84.6373 54.1347 84.602 54.1356 84.5656 54.1366C81.9322 54.1934 79.3567 53.5383 77.406 51.7134C77.1854 51.5024 76.9889 51.2799 76.806 51.0355C76.7891 51.0133 76.7723 50.9911 76.755 50.9682C75.9426 49.8917 75.4547 48.6713 75.2074 47.351C75.2005 47.3149 75.1935 47.2788 75.1863 47.2416C74.9542 45.9648 74.9632 44.4799 75.2074 43.206C75.2179 43.1492 75.2179 43.1492 75.2286 43.0912C75.3871 42.259 75.636 41.4277 76.0495 40.6845C76.0903 40.611 76.1297 40.5368 76.169 40.4626C76.5048 39.848 76.9424 39.3047 77.437 38.8097C77.4581 38.7886 77.4791 38.7675 77.5008 38.7457C80.1667 36.1069 85.002 35.7059 88.2905 37.3024ZM81.6438 41.4475C81.6127 41.4797 81.5815 41.5119 81.5495 41.5451C81.0591 42.1025 80.8384 42.8659 80.7183 43.5828C82.759 43.5828 84.7997 43.5828 86.9023 43.5828C86.8393 43.1068 86.8393 43.1068 86.7288 42.646C86.7154 42.6019 86.7154 42.6019 86.7018 42.5569C86.4593 41.7973 86.0507 41.1795 85.3458 40.7776C85.1942 40.7075 85.0444 40.6529 84.883 40.6101C84.8565 40.6028 84.8301 40.5956 84.8028 40.5881C83.6602 40.3009 82.4538 40.6049 81.6438 41.4475Z" fill="#1B5DEF"/>
<path d="M146.385 38.5735C147.711 39.7791 148.539 41.3613 148.882 43.1116C148.891 43.1589 148.891 43.1589 148.9 43.2071C149.023 43.8888 149.052 44.5715 149.05 45.2626C149.05 45.3245 149.05 45.3245 149.05 45.3876C149.048 46.0217 149.027 46.642 148.91 47.2671C148.903 47.3052 148.896 47.3433 148.889 47.3826C148.5 49.4247 147.433 51.3347 145.696 52.5375C145.564 52.6264 145.429 52.7108 145.293 52.7938C145.251 52.8195 145.251 52.8195 145.208 52.8457C142.932 54.2227 139.911 54.4563 137.351 53.8549C136.57 53.6577 135.821 53.3839 135.112 53.0031C135.086 52.9895 135.061 52.9758 135.034 52.9617C133.221 51.994 131.967 50.3004 131.359 48.3669C131.037 47.2851 130.918 46.1323 130.947 45.0061C130.948 44.9768 130.949 44.9474 130.95 44.9172C131.015 42.6688 131.703 40.5945 133.261 38.9351C133.293 38.9011 133.325 38.867 133.358 38.8319C133.826 38.3491 134.364 37.9749 134.944 37.6372C134.969 37.6225 134.994 37.6078 135.019 37.5926C138.255 35.7052 143.273 35.9559 146.385 38.5735ZM137.811 41.4658C136.948 42.4834 136.828 43.9697 136.826 45.2417C136.826 45.2715 136.826 45.3012 136.826 45.3319C136.828 46.5829 136.946 47.9699 137.762 48.9837C137.785 49.0132 137.808 49.0427 137.832 49.0732C138.269 49.6082 138.935 49.8938 139.614 49.9665C140.411 50.0366 141.198 49.9002 141.843 49.4024C142.796 48.6015 143.057 47.3526 143.164 46.1688C143.176 46.0045 143.184 45.8407 143.189 45.676C143.191 45.6323 143.191 45.6323 143.192 45.5876C143.231 44.1365 143.119 42.4382 142.064 41.3294C141.479 40.7645 140.696 40.5507 139.895 40.559C139.08 40.6062 138.384 40.87 137.811 41.4658Z" fill="#1B5DEF"/>
<path d="M180.546 31.357C180.546 33.1394 180.546 34.9217 180.546 36.7581C182.225 36.7581 183.905 36.7581 185.636 36.7581C185.636 38.126 185.636 39.4938 185.636 40.9031C183.956 40.9031 182.276 40.9031 180.546 40.9031C180.551 42.1465 180.551 42.1465 180.556 43.3898C180.559 43.8971 180.561 44.4044 180.563 44.9117C180.565 45.2812 180.566 45.6507 180.568 46.0202C180.569 46.2157 180.57 46.4112 180.571 46.6066C180.571 46.791 180.572 46.9754 180.574 47.1598C180.574 47.2271 180.574 47.2944 180.574 47.3616C180.575 48.0574 180.584 48.8259 181.092 49.3607C181.562 49.8138 182.193 49.9529 182.829 49.9467C183.649 49.9263 184.363 49.7713 185.07 49.3378C185.173 49.277 185.173 49.277 185.299 49.2351C185.453 49.9566 185.573 50.6834 185.694 51.411C185.72 51.5721 185.747 51.7333 185.774 51.8944C185.826 52.2082 185.878 52.522 185.93 52.8358C185.856 52.8828 185.783 52.9298 185.709 52.9767C185.668 53.0029 185.626 53.029 185.584 53.056C183.596 54.2997 180.8 54.3777 178.571 53.8719C177.76 53.6752 176.964 53.3558 176.339 52.794C176.292 52.7563 176.292 52.7563 176.244 52.7179C175.278 51.9209 174.87 50.6812 174.746 49.4769C174.674 48.6805 174.687 47.882 174.69 47.0832C174.69 46.8653 174.69 46.6473 174.69 46.4294C174.691 46.0184 174.691 45.6074 174.692 45.1964C174.693 44.7278 174.693 44.2591 174.694 43.7905C174.695 42.8281 174.696 41.8656 174.698 40.9031C173.74 40.9031 172.782 40.9031 171.795 40.9031C171.795 39.5353 171.795 38.1674 171.795 36.7581C172.753 36.7581 173.711 36.7581 174.698 36.7581C174.698 35.5008 174.698 34.2435 174.698 32.948C175.289 32.7865 175.88 32.6251 176.489 32.4587C178.24 31.98 178.24 31.98 179.991 31.4975C180.027 31.4875 180.063 31.4775 180.1 31.4673C180.165 31.4493 180.23 31.4313 180.295 31.4133C180.499 31.357 180.499 31.357 180.546 31.357Z" fill="#1B5DEF"/>
<path d="M36 27.17C38.8181 27.17 41.6363 27.17 44.5398 27.17C44.1205 28.0046 43.6914 28.8278 43.2255 29.6373C43.1484 29.7713 43.0719 29.9056 42.9954 30.04C42.4025 31.0804 41.8024 32.1169 41.1347 33.1119C41.0545 33.2316 40.9748 33.3515 40.8952 33.4716C39.8785 35.0051 39.8785 35.0051 39.3234 35.6694C39.5046 36.0148 39.6924 36.3554 39.8887 36.6926C40.1921 37.2158 40.4742 37.7501 40.7568 38.2846C40.8378 38.4377 40.9197 38.5904 41.0028 38.7424C41.9489 40.479 42.5055 42.3712 42.9491 44.2864C42.9556 44.3143 42.9621 44.3422 42.9688 44.371C42.9813 44.4256 42.9934 44.4803 43.005 44.535C43.0181 44.5957 43.0321 44.6562 43.0471 44.7164C43.1388 45.1291 43.1206 45.5484 43.119 45.9686C43.119 46.0573 43.119 46.1461 43.1191 46.2348C43.1191 46.4747 43.1186 46.7145 43.118 46.9544C43.1175 47.2055 43.1174 47.4565 43.1173 47.7076C43.1171 48.1825 43.1164 48.6574 43.1156 49.1324C43.1144 49.7745 43.114 50.4166 43.1135 51.0588C43.1127 52.0698 43.111 53.0808 43.1095 54.0918C40.7634 54.0918 38.4172 54.0918 36 54.0918C36 45.2076 36 36.3234 36 27.17Z" fill="#1B5DEF"/>
<path d="M47.1479 21.9366C47.1618 21.9366 47.1757 21.9366 47.19 21.9366C47.1902 22.012 47.1902 22.012 47.1905 22.0889C47.1927 22.7691 47.1962 23.4493 47.2005 24.1295C47.2007 24.1578 47.2009 24.1861 47.2011 24.2153C47.2175 26.8206 47.2774 29.4245 47.3426 32.029C47.3436 32.0671 47.3445 32.1051 47.3455 32.1444C47.3546 32.5065 47.3637 32.8687 47.3732 33.2309C47.3765 33.3611 47.3799 33.4913 47.3832 33.6215C47.3855 33.7092 47.3878 33.7969 47.3901 33.8846C47.3975 34.1727 47.4025 34.4604 47.4004 34.7485C47.3658 34.7521 47.3312 34.7557 47.2955 34.7594C46.8672 34.8131 46.5054 34.9215 46.2055 35.2447C45.8848 35.6739 45.7491 36.1454 45.8018 36.6745C45.9074 37.1517 46.1457 37.5717 46.559 37.8468C47.0295 38.0819 47.4544 38.1737 47.9683 38.0326C48.3967 37.8891 48.7202 37.6459 48.9569 37.2606C49.2001 36.7654 49.2286 36.3233 49.0519 35.8C48.8839 35.3861 48.5804 35.0533 48.1689 34.8677C48.064 34.8287 47.9623 34.8066 47.8523 34.7859C47.8148 34.7788 47.7773 34.7717 47.7387 34.7643C47.7103 34.7591 47.682 34.7539 47.6528 34.7485C47.5856 33.4597 47.5326 32.1706 47.4871 30.8808C47.4853 30.8309 47.4836 30.7811 47.4817 30.7297C47.4143 28.8317 47.3669 26.9336 47.3267 25.0349C47.3261 25.0025 47.3254 24.9702 47.3247 24.9368C47.3154 24.5018 47.3064 24.0668 47.2976 23.6318C47.2964 23.5749 47.2953 23.5179 47.2941 23.4609C47.2904 23.2763 47.2867 23.0918 47.2831 22.9072C47.2822 22.862 47.2812 22.8168 47.2803 22.7702C47.275 22.4923 47.2731 22.2145 47.2742 21.9366C47.3583 21.9784 47.3583 21.9784 47.3894 22.049C47.3992 22.0798 47.4089 22.1106 47.4189 22.1423C47.4303 22.1775 47.4416 22.2127 47.4533 22.2489C47.4654 22.2877 47.4776 22.3266 47.4901 22.3665C47.517 22.4504 47.5439 22.5342 47.5708 22.618C47.585 22.6626 47.5992 22.7072 47.6138 22.7531C48.3156 24.9528 49.1004 27.1241 50.2356 29.1431C50.3077 29.272 50.3788 29.4014 50.4498 29.5309C50.8299 30.222 51.2317 30.8973 51.6492 31.5664C51.6736 31.6056 51.6981 31.6448 51.7232 31.6851C52.042 32.1945 52.3745 32.6947 52.7088 33.1941C52.728 33.2228 52.7472 33.2514 52.7669 33.281C53.1341 33.829 53.5064 34.3735 53.8893 34.9107C53.9102 34.9402 53.931 34.9697 53.9525 35.0001C54.0434 35.1286 54.135 35.2559 54.23 35.3814C54.2573 35.4178 54.2845 35.4542 54.3127 35.4917C54.3359 35.5217 54.3592 35.5517 54.3832 35.5826C54.4429 35.7047 54.4274 35.7497 54.3836 35.879C54.326 36.0087 54.262 36.1348 54.197 36.261C54.178 36.2984 54.159 36.3357 54.1395 36.3742C54.0346 36.5799 53.927 36.7839 53.8172 36.9869C52.7648 38.9394 51.9268 41.0398 51.4888 43.2165C51.4806 43.2565 51.4724 43.2966 51.464 43.3378C51.3796 43.7826 51.3544 44.2146 51.3127 44.6714C48.8833 44.6714 46.4538 44.6714 43.9508 44.6714C43.8568 44.2974 43.8568 44.2974 43.8228 44.1222C43.4398 42.1966 42.7837 40.3274 41.9315 38.5586C41.9142 38.5226 41.897 38.4866 41.8792 38.4495C41.4314 37.5221 40.8979 36.64 40.375 35.7533C40.4944 35.5337 40.6298 35.3418 40.7852 35.1462C41.7366 33.9276 42.5806 32.6054 43.3618 31.2734C43.3835 31.2366 43.4051 31.1999 43.4274 31.162C44.4995 29.3303 45.3361 27.415 46.0129 25.4085C46.0553 25.2828 46.0979 25.1572 46.1406 25.0316C46.4895 24.0039 46.8298 22.9741 47.1479 21.9366Z" fill="#1B5DEF"/>
<path d="M74.24 37.1349C74.1757 37.67 74.1113 38.2051 74.0469 38.7401C74.017 38.9886 73.987 39.2371 73.9572 39.4856C73.9283 39.7259 73.8994 39.9662 73.8704 40.2064C73.8595 40.2976 73.8485 40.3888 73.8375 40.4801C73.7786 40.9705 73.7186 41.4606 73.651 41.9499C73.6032 41.9375 73.5554 41.925 73.5061 41.9122C72.0816 41.5428 70.6156 41.5096 69.3075 42.2409C69.1264 42.3489 68.9686 42.4783 68.8132 42.6198C68.7702 42.6569 68.7702 42.6569 68.7263 42.6947C68.0482 43.3154 67.7123 44.2842 67.6733 45.1839C67.6714 45.2822 67.6708 45.3804 67.6707 45.4787C67.6705 45.516 67.6703 45.5532 67.6701 45.5916C67.6694 45.7154 67.6691 45.8392 67.6687 45.963C67.6683 46.0522 67.6679 46.1413 67.6675 46.2305C67.6663 46.4718 67.6654 46.7131 67.6646 46.9545C67.6637 47.2069 67.6625 47.4594 67.6614 47.7118C67.6593 48.1896 67.6574 48.6674 67.6556 49.1451C67.6531 49.7909 67.6503 50.4367 67.6476 51.0826C67.6432 52.0996 67.6393 53.1167 67.6353 54.1338C65.7056 54.1338 63.776 54.1338 61.7878 54.1338C61.7878 48.5103 61.7878 42.8869 61.7878 37.0931C63.4954 37.0931 65.2029 37.0931 66.9622 37.0931C67.0463 38.2375 67.1305 39.3819 67.2146 40.5263C67.224 40.5052 67.2334 40.484 67.243 40.4622C67.2863 40.3646 67.3296 40.267 67.373 40.1695C67.3878 40.1362 67.4025 40.1029 67.4177 40.0687C67.9945 38.7727 68.9134 37.6434 70.2664 37.1066C71.4807 36.6485 73.0603 36.5391 74.24 37.1349Z" fill="#1B5DEF"/>
<path d="M50.177 27.2536C50.5672 27.2749 50.9469 27.3169 51.3312 27.3871C51.3821 27.3963 51.4329 27.4056 51.4853 27.4151C53.1273 27.7222 54.8001 28.31 56.0665 29.4308C56.1007 29.4603 56.1349 29.4898 56.17 29.5201C56.2775 29.6142 56.3827 29.7103 56.4872 29.8076C56.5271 29.8446 56.5669 29.8815 56.608 29.9195C58.0873 31.3214 58.8316 33.4305 58.8937 35.4333C58.8988 35.6742 58.8992 35.9151 58.8982 36.156C58.8981 36.2197 58.8981 36.2197 58.898 36.2847C58.8898 38.6635 58.1668 40.8387 56.4731 42.5512C56.3065 42.7139 56.1262 42.8564 55.9403 42.9964C55.9012 43.0271 55.862 43.0579 55.8217 43.0896C55.4984 43.3393 55.1591 43.5486 54.8045 43.75C54.7678 43.7713 54.7678 43.7713 54.7305 43.793C54.0194 44.2044 52.9438 44.7549 52.1121 44.7549C52.4795 41.6313 53.8283 38.6007 55.3157 35.8553C55.3414 35.8077 55.367 35.7602 55.3934 35.7112C55.4313 35.6444 55.4313 35.6444 55.4698 35.5762C55.5265 35.4673 55.5265 35.4673 55.5155 35.3708C55.4678 35.2724 55.4088 35.2068 55.333 35.1276C55.1123 34.8878 54.916 34.6314 54.7203 34.3714C54.6981 34.3419 54.6758 34.3124 54.6529 34.282C54.283 33.7905 53.9287 33.29 53.5845 32.7803C53.5521 32.7325 53.5521 32.7325 53.5191 32.6837C52.5526 31.2532 51.6431 29.7865 50.766 28.3004C50.737 28.2515 50.7081 28.2025 50.6792 28.1536C50.5958 28.0125 50.5126 27.8712 50.4294 27.7299C50.4039 27.6867 50.3784 27.6435 50.3522 27.5989C50.3291 27.5596 50.306 27.5202 50.2822 27.4797C50.2618 27.445 50.2414 27.4103 50.2204 27.3746C50.177 27.2955 50.177 27.2955 50.177 27.2536Z" fill="#1B5DEF"/>
<path d="M47.2742 21.9366C47.3583 21.9784 47.3583 21.9784 47.3894 22.049C47.3992 22.0798 47.4089 22.1106 47.419 22.1423C47.4303 22.1775 47.4416 22.2127 47.4533 22.2489C47.4654 22.2877 47.4776 22.3266 47.4901 22.3665C47.517 22.4504 47.5439 22.5342 47.5708 22.618C47.585 22.6626 47.5992 22.7072 47.6138 22.7531C47.8545 23.5075 48.1056 24.2574 48.3785 25.0009C48.3923 25.0387 48.4062 25.0765 48.4205 25.1155C48.6248 25.6704 48.8383 26.2215 49.0641 26.7682C49.0834 26.8151 49.1027 26.8619 49.1225 26.9101C49.1394 26.9506 49.1563 26.9911 49.1736 27.0327C49.2093 27.1283 49.2093 27.1283 49.2093 27.2121C48.6124 27.2121 48.0154 27.2121 47.4004 27.2121C47.352 26.4424 47.352 26.4424 47.3458 26.0929C47.3446 26.0332 47.3446 26.0332 47.3433 25.9723C47.3407 25.8436 47.3382 25.7149 47.3358 25.5862C47.334 25.4953 47.3322 25.4045 47.3303 25.3136C47.3265 25.1244 47.3228 24.9352 47.3192 24.746C47.3146 24.5045 47.3098 24.263 47.3049 24.0216C47.3002 23.7895 47.2957 23.5574 47.2911 23.3253C47.2902 23.2816 47.2894 23.238 47.2885 23.193C47.286 23.0684 47.2836 22.9438 47.2812 22.8193C47.2805 22.7832 47.2798 22.7472 47.279 22.71C47.2742 22.4522 47.2734 22.1944 47.2742 21.9366Z" fill="#000A3A"/>
<path d="M47.1479 21.9366C47.1618 21.9366 47.1756 21.9366 47.19 21.9366C47.19 23.6775 47.19 25.4184 47.19 27.2121C46.6069 27.2121 46.0238 27.2121 45.4231 27.2121C45.4774 26.9688 45.528 26.7602 45.6114 26.5302C45.6326 26.4713 45.6537 26.4124 45.6749 26.3534C45.6861 26.3225 45.6973 26.2916 45.7088 26.2597C45.9477 25.5989 46.1755 24.9344 46.3985 24.2681C46.4128 24.2256 46.427 24.1831 46.4417 24.1393C46.6861 23.4078 46.9218 22.6739 47.1479 21.9366Z" fill="#000A3A"/>
</svg>
